<svg data-v-423bf9ae="" xmlns="http://www.w3.org/2000/svg" viewBox="0 0 166.88772589515344 60" class="font"><!----><!----><!----><g data-v-423bf9ae="" id="021f2b9a-5d7a-4273-8d7f-1ab562666c49" fill="#DAA5DE" transform="matrix(4.922875069913688,0,0,4.922875069913688,-2.412210532673612,-16.934690999029414)"><path d="M1.80 6.38L0.49 6.89L0.49 12.73L1.87 12.15L1.87 8.05L1.87 8.05Q2.53 7.22 3.51 7.37L3.51 7.37L3.51 7.37Q4.50 7.53 4.46 8.48L4.46 8.48L4.46 12.77L5.80 12.18L5.80 8.25L5.80 8.25Q5.89 7.35 5.23 6.87L5.23 6.87L5.23 6.87Q4.57 6.40 3.61 6.56L3.61 6.56L3.61 6.56Q2.64 6.72 1.80 7.73L1.80 7.73L1.80 6.38ZM8.46 3.55L7.19 4.14L7.19 5.58L8.46 5.06L8.46 3.55ZM8.46 6.54L7.15 7.02L7.15 12.67L8.46 12.21L8.46 6.54ZM12.38 7.38L12.38 7.38L12.38 7.38Q13.30 7.58 13.93 8.36L13.93 8.36L13.93 8.36Q14.56 9.13 14.50 9.87L14.50 9.87L14.50 9.87Q14.43 10.62 13.98 10.98L13.98 10.98L13.98 10.98Q13.53 11.33 12.56 11.06L12.56 11.06L12.56 11.06Q11.59 10.79 11.08 9.78L11.08 9.78L11.08 9.78Q10.57 8.76 11.02 7.97L11.02 7.97L11.02 7.97Q11.46 7.18 12.38 7.38ZM15.07 4.12L14.16 5.26L14.16 5.26Q15.03 5.69 14.36 6.91L14.36 6.91L14.36 6.91Q13.42 6.26 12.42 6.50L12.42 6.50L12.42 6.50Q11.42 6.73 10.79 7.33L10.79 7.33L10.79 7.33Q10.15 7.94 9.92 8.70L9.92 8.70L9.92 8.70Q9.69 9.45 9.87 10.18L9.87 10.18L9.87 10.18Q10.06 10.90 10.74 11.57L10.74 11.57L10.74 11.57Q11.42 12.24 12.78 12.29L12.78 12.29L12.78 12.29Q13.18 12.37 13.94 12.64L13.94 12.64L13.94 12.64Q14.70 12.91 14.92 13.49L14.92 13.49L14.92 13.49Q15.13 14.08 14.53 14.44L14.53 14.44L14.53 14.44Q13.92 14.81 12.55 14.55L12.55 14.55L12.55 14.55Q11.19 14.29 10.68 13.45L10.68 13.45L10.68 13.45Q10.18 12.61 10.68 12.00L10.68 12.00L10.60 11.94L10.60 11.94Q9.24 12.96 9.48 13.97L9.48 13.97L9.48 13.97Q9.73 14.98 10.87 15.34L10.87 15.34L10.87 15.34Q12.00 15.70 12.85 15.61L12.85 15.61L12.85 15.61Q13.70 15.51 14.27 15.19L14.27 15.19L14.27 15.19Q14.83 14.86 15.30 14.33L15.30 14.33L15.30 14.33Q15.77 13.79 15.85 13.13L15.85 13.13L15.85 13.13Q15.92 12.47 15.44 12.08L15.44 12.08L15.44 12.08Q14.96 11.69 14.14 11.55L14.14 11.55L14.14 11.55Q14.94 10.92 15.31 10.22L15.31 10.22L15.31 10.22Q15.67 9.53 15.47 8.59L15.47 8.59L15.47 8.59Q15.26 7.64 14.60 7.07L14.60 7.07L14.60 7.07Q15.92 5.75 15.75 4.99L15.75 4.99L15.75 4.99Q15.59 4.24 15.07 4.12L15.07 4.12ZM18.06 3.44L16.79 3.95L16.79 12.73L18.12 12.17L18.12 8.05L18.12 8.05Q18.76 7.22 19.75 7.44L19.75 7.44L19.75 7.44Q20.74 7.66 20.69 8.69L20.69 8.69L20.69 12.77L21.99 12.24L21.99 8.32L21.99 8.32Q21.93 6.56 20.50 6.47L20.50 6.47L20.50 6.47Q19.07 6.38 18.05 7.73L18.05 7.73L18.06 3.44ZM25.25 4.44L24.01 4.94L24.01 6.84L23.72 6.84L22.57 7.86L24.01 7.86L23.93 10.19L23.93 10.19Q23.94 11.87 24.82 12.42L24.82 12.42L24.82 12.42Q25.70 12.97 26.59 12.56L26.59 12.56L26.59 12.56Q27.48 12.15 27.80 11.09L27.80 11.09L27.71 10.93L27.71 10.93Q26.81 12.06 25.94 11.64L25.94 11.64L25.94 11.64Q25.06 11.22 25.21 9.78L25.21 9.78L25.26 7.85L26.10 7.85L28.17 6.79L25.25 6.79L25.25 4.44ZM31.60 6.48L31.60 6.48L31.60 6.48Q30.49 6.51 29.78 7.03L29.78 7.03L29.78 7.03Q29.07 7.55 28.75 8.19L28.75 8.19L28.75 8.19Q28.43 8.84 28.41 9.76L28.41 9.76L28.41 9.76Q28.38 10.68 29.07 11.62L29.07 11.62L29.07 11.62Q29.76 12.56 30.77 12.71L30.77 12.71L30.77 12.71Q31.78 12.85 32.64 12.33L32.64 12.33L32.64 12.33Q33.50 11.80 33.93 11.12L33.93 11.12L33.93 11.12Q34.37 10.45 34.39 9.35L34.39 9.35L34.39 9.35Q34.41 8.26 33.56 7.36L33.56 7.36L33.56 7.36Q32.72 6.46 31.60 6.48ZM31.31 7.44L31.31 7.44L31.31 7.44Q32.35 7.82 32.77 8.91L32.77 8.91L32.77 8.91Q33.20 9.99 33.15 10.67L33.15 10.67L33.15 10.67Q33.09 11.34 32.52 11.71L32.52 11.71L32.52 11.71Q31.95 12.08 31.00 11.56L31.00 11.56L31.00 11.56Q30.06 11.05 29.75 9.91L29.75 9.91L29.75 9.91Q29.45 8.77 29.86 7.92L29.86 7.92L29.86 7.92Q30.26 7.07 31.31 7.44Z"></path></g><!----><!----></svg>